<?xml version="1.0" encoding="UTF-8" standalone="no"?>
<!DOCTYPE svg PUBLIC "-//W3C//DTD SVG 1.1//EN"
 "http://www.w3.org/Graphics/SVG/1.1/DTD/svg11.dtd">
<!-- Generated by graphviz version 2.40.1 (20161225.0304)
 -->
<!-- Title: ER Pages: 1 -->
<svg width="1566pt" height="486pt"
 viewBox="0.00 0.00 1565.75 486.00" xmlns="http://www.w3.org/2000/svg" xmlns:xlink="http://www.w3.org/1999/xlink">
<g id="graph0" class="graph" transform="scale(1 1) rotate(0) translate(4 482)">
<title>ER</title>
<polygon fill="#ffffff" stroke="transparent" points="-4,4 -4,-482 1561.7487,-482 1561.7487,4 -4,4"/>
<!-- покупатель -->
<g id="node1" class="node">
<title>покупатель</title>
<polygon fill="none" stroke="#000000" points="1048.3927,-405 945.3927,-405 945.3927,-369 1048.3927,-369 1048.3927,-405"/>
<text text-anchor="middle" x="996.8927" y="-383.3" font-family="Times,serif" font-size="14.00" fill="#000000">покупатель</text>
</g>
<!-- имеет0 -->
<g id="node25" class="node">
<title>имеет0</title>
<polygon fill="#d3d3d3" stroke="#d3d3d3" points="924.8927,-318 867.9172,-300 924.8927,-282 981.8682,-300 924.8927,-318"/>
<text text-anchor="middle" x="924.8927" y="-296.3" font-family="Times,serif" font-size="14.00" fill="#000000">имеет</text>
</g>
<!-- покупатель&#45;&#45;имеет0 -->
<g id="edge13" class="edge">
<title>покупатель&#45;&#45;имеет0</title>
<path fill="none" stroke="#000000" d="M981.9743,-368.9735C968.5464,-352.7481 949.0766,-329.2222 936.7027,-314.2704"/>
<text text-anchor="middle" x="970.8927" y="-339.8" font-family="Times,serif" font-size="14.00" fill="#000000">1</text>
</g>
<!-- владеет0 -->
<g id="node28" class="node">
<title>владеет0</title>
<polygon fill="#d3d3d3" stroke="#d3d3d3" points="1487.8927,-318 1418.1805,-300 1487.8927,-282 1557.6049,-300 1487.8927,-318"/>
<text text-anchor="middle" x="1487.8927" y="-296.3" font-family="Times,serif" font-size="14.00" fill="#000000">владеет</text>
</g>
<!-- покупатель&#45;&#45;владеет0 -->
<g id="edge7" class="edge">
<title>покупатель&#45;&#45;владеет0</title>
<path fill="none" stroke="#000000" d="M1048.4515,-379.3499C1126.6357,-367.527 1279.756,-343.5031 1408.8927,-318 1422.969,-315.2201 1438.3697,-311.7979 1451.8047,-308.6865"/>
<text text-anchor="middle" x="1312.8927" y="-339.8" font-family="Times,serif" font-size="14.00" fill="#000000">1</text>
</g>
<!-- кредитная карта -->
<g id="node2" class="node">
<title>кредитная карта</title>
<polygon fill="none" stroke="#000000" points="1302.8927,-210 1158.8927,-210 1158.8927,-174 1302.8927,-174 1302.8927,-210"/>
<text text-anchor="middle" x="1230.8927" y="-188.3" font-family="Times,serif" font-size="14.00" fill="#000000">кредитная карта</text>
</g>
<!-- администратор -->
<g id="node3" class="node">
<title>администратор</title>
<polygon fill="none" stroke="#000000" points="1342.8927,-405 1208.8927,-405 1208.8927,-369 1342.8927,-369 1342.8927,-405"/>
<text text-anchor="middle" x="1275.8927" y="-383.3" font-family="Times,serif" font-size="14.00" fill="#000000">администратор</text>
</g>
<!-- заказ -->
<g id="node4" class="node">
<title>заказ</title>
<polygon fill="none" stroke="#000000" points="765.3927,-210 708.3927,-210 708.3927,-174 765.3927,-174 765.3927,-210"/>
<text text-anchor="middle" x="736.8927" y="-188.3" font-family="Times,serif" font-size="14.00" fill="#000000">заказ</text>
</g>
<!-- включает -->
<g id="node27" class="node">
<title>включает</title>
<polygon fill="#d3d3d3" stroke="#d3d3d3" points="706.8927,-123 623.9438,-105 706.8927,-87 789.8416,-105 706.8927,-123"/>
<text text-anchor="middle" x="706.8927" y="-101.3" font-family="Times,serif" font-size="14.00" fill="#000000">включает</text>
</g>
<!-- заказ&#45;&#45;включает -->
<g id="edge19" class="edge">
<title>заказ&#45;&#45;включает</title>
<path fill="none" stroke="#000000" d="M730.6767,-173.9735C725.3907,-158.644 717.8575,-136.7979 712.6937,-121.8228"/>
<text text-anchor="middle" x="728.8927" y="-144.8" font-family="Times,serif" font-size="14.00" fill="#000000">1</text>
</g>
<!-- продавец -->
<g id="node5" class="node">
<title>продавец</title>
<polygon fill="none" stroke="#000000" points="576.8927,-405 490.8927,-405 490.8927,-369 576.8927,-369 576.8927,-405"/>
<text text-anchor="middle" x="533.8927" y="-383.3" font-family="Times,serif" font-size="14.00" fill="#000000">продавец</text>
</g>
<!-- имеет1 -->
<g id="node26" class="node">
<title>имеет1</title>
<polygon fill="#d3d3d3" stroke="#d3d3d3" points="576.8927,-318 519.9172,-300 576.8927,-282 633.8682,-300 576.8927,-318"/>
<text text-anchor="middle" x="576.8927" y="-296.3" font-family="Times,serif" font-size="14.00" fill="#000000">имеет</text>
</g>
<!-- продавец&#45;&#45;имеет1 -->
<g id="edge27" class="edge">
<title>продавец&#45;&#45;имеет1</title>
<path fill="none" stroke="#000000" d="M542.8024,-368.9735C550.5758,-353.2459 561.7396,-330.6586 569.1478,-315.6701"/>
<text text-anchor="middle" x="563.8927" y="-339.8" font-family="Times,serif" font-size="14.00" fill="#000000">1</text>
</g>
<!-- владеет1 -->
<g id="node29" class="node">
<title>владеет1</title>
<polygon fill="#d3d3d3" stroke="#d3d3d3" points="527.8927,-264 458.1805,-246 527.8927,-228 597.6049,-246 527.8927,-264"/>
<text text-anchor="middle" x="527.8927" y="-242.3" font-family="Times,serif" font-size="14.00" fill="#000000">владеет</text>
</g>
<!-- продавец&#45;&#45;владеет1 -->
<g id="edge25" class="edge">
<title>продавец&#45;&#45;владеет1</title>
<path fill="none" stroke="#000000" d="M525.0134,-368.7779C515.9391,-347.827 504.0738,-312.4093 510.8927,-282 512.4353,-275.1208 515.4475,-268.0084 518.5132,-261.9406"/>
<text text-anchor="middle" x="522.8927" y="-339.8" font-family="Times,serif" font-size="14.00" fill="#000000">1</text>
</g>
<!-- товар -->
<g id="node6" class="node">
<title>товар</title>
<polygon fill="none" stroke="#000000" points="433.3927,-36 374.3927,-36 374.3927,0 433.3927,0 433.3927,-36"/>
<text text-anchor="middle" x="403.8927" y="-14.3" font-family="Times,serif" font-size="14.00" fill="#000000">товар</text>
</g>
<!-- имяПользователя -->
<g id="node7" class="node">
<title>имяПользователя</title>
<ellipse fill="none" stroke="#000000" cx="803.8927" cy="-460" rx="30.5947" ry="18"/>
<text text-anchor="middle" x="803.8927" y="-456.3" font-family="Times,serif" font-size="14.00" fill="#000000">имя</text>
</g>
<!-- имяПользователя&#45;&#45;покупатель -->
<g id="edge3" class="edge">
<title>имяПользователя&#45;&#45;покупатель</title>
<path fill="none" stroke="#000000" d="M827.8756,-448.8435C833.1213,-446.5056 838.6678,-444.111 843.8927,-442 877.2611,-428.5183 915.3432,-414.8228 945.1667,-404.4707"/>
</g>
<!-- имяПродавца -->
<g id="node8" class="node">
<title>имяПродавца</title>
<ellipse fill="none" stroke="#000000" cx="364.8927" cy="-460" rx="30.5947" ry="18"/>
<text text-anchor="middle" x="364.8927" y="-456.3" font-family="Times,serif" font-size="14.00" fill="#000000">имя</text>
</g>
<!-- имяПродавца&#45;&#45;продавец -->
<g id="edge24" class="edge">
<title>имяПродавца&#45;&#45;продавец</title>
<path fill="none" stroke="#000000" d="M389.3971,-448.8806C394.5094,-446.5868 399.8707,-444.2003 404.8927,-442 433.4368,-429.4941 465.6868,-415.7441 490.8008,-405.1206"/>
</g>
<!-- фамилия -->
<g id="node9" class="node">
<title>фамилия</title>
<ellipse fill="none" stroke="#000000" cx="907.8927" cy="-460" rx="55.4913" ry="18"/>
<text text-anchor="middle" x="907.8927" y="-456.3" font-family="Times,serif" font-size="14.00" fill="#000000">фамилия</text>
</g>
<!-- фамилия&#45;&#45;покупатель -->
<g id="edge4" class="edge">
<title>фамилия&#45;&#45;покупатель</title>
<path fill="none" stroke="#000000" d="M928.5348,-443.0688C942.3995,-431.6967 960.651,-416.7264 974.807,-405.1153"/>
</g>
<!-- логинПользователя -->
<g id="node10" class="node">
<title>логинПользователя</title>
<ellipse fill="none" stroke="#000000" cx="1020.8927" cy="-460" rx="39.7935" ry="18"/>
<text text-anchor="middle" x="1020.8927" y="-456.3" font-family="Times,serif" font-size="14.00" fill="#000000">логин</text>
</g>
<!-- логинПользователя&#45;&#45;покупатель -->
<g id="edge5" class="edge">
<title>логинПользователя&#45;&#45;покупатель</title>
<path fill="none" stroke="#000000" d="M1014.9601,-441.9551C1011.2678,-430.7241 1006.5354,-416.3298 1002.8402,-405.0904"/>
</g>
<!-- логинАдмин -->
<g id="node11" class="node">
<title>логинАдмин</title>
<ellipse fill="none" stroke="#000000" cx="1224.8927" cy="-460" rx="39.7935" ry="18"/>
<text text-anchor="middle" x="1224.8927" y="-456.3" font-family="Times,serif" font-size="14.00" fill="#000000">логин</text>
</g>
<!-- логинАдмин&#45;&#45;администратор -->
<g id="edge1" class="edge">
<title>логинАдмин&#45;&#45;администратор</title>
<path fill="none" stroke="#000000" d="M1236.979,-442.7C1244.8732,-431.4005 1255.165,-416.6691 1263.1815,-405.1945"/>
</g>
<!-- cvv -->
<g id="node12" class="node">
<title>cvv</title>
<ellipse fill="none" stroke="#000000" cx="1026.8927" cy="-300" rx="27" ry="18"/>
<text text-anchor="middle" x="1026.8927" y="-296.3" font-family="Times,serif" font-size="14.00" fill="#000000">cvv</text>
</g>
<!-- cvv&#45;&#45;кредитная карта -->
<g id="edge9" class="edge">
<title>cvv&#45;&#45;кредитная карта</title>
<path fill="none" stroke="#000000" d="M1048.3387,-288.6462C1083.6313,-269.9619 1154.2492,-232.576 1196.5617,-210.1753"/>
</g>
<!-- номер карты -->
<g id="node13" class="node">
<title>номер карты</title>
<ellipse fill="none" stroke="#000000" cx="1144.8927" cy="-300" rx="73.387" ry="18"/>
<text text-anchor="middle" x="1144.8927" y="-296.3" font-family="Times,serif" font-size="14.00" fill="#000000">номер карты</text>
</g>
<!-- номер карты&#45;&#45;кредитная карта -->
<g id="edge10" class="edge">
<title>номер карты&#45;&#45;кредитная карта</title>
<path fill="none" stroke="#000000" d="M1159.0939,-282.166C1174.9329,-262.2752 1200.42,-230.268 1216.383,-210.2215"/>
</g>
<!-- срок действия -->
<g id="node14" class="node">
<title>срок действия</title>
<ellipse fill="none" stroke="#000000" cx="1317.8927" cy="-300" rx="81.7856" ry="18"/>
<text text-anchor="middle" x="1317.8927" y="-296.3" font-family="Times,serif" font-size="14.00" fill="#000000">срок действия</text>
</g>
<!-- срок действия&#45;&#45;кредитная карта -->
<g id="edge11" class="edge">
<title>срок действия&#45;&#45;кредитная карта</title>
<path fill="none" stroke="#000000" d="M1303.5265,-282.166C1287.5033,-262.2752 1261.7198,-230.268 1245.5711,-210.2215"/>
</g>
<!-- время готовности -->
<g id="node15" class="node">
<title>время готовности</title>
<ellipse fill="none" stroke="#000000" cx="750.8927" cy="-300" rx="98.5829" ry="18"/>
<text text-anchor="middle" x="750.8927" y="-296.3" font-family="Times,serif" font-size="14.00" fill="#000000">время готовности</text>
</g>
<!-- время готовности&#45;&#45;заказ -->
<g id="edge12" class="edge">
<title>время готовности&#45;&#45;заказ</title>
<path fill="none" stroke="#000000" d="M748.5178,-281.6793C745.9278,-261.699 741.8087,-229.9231 739.2326,-210.0502"/>
</g>
<!-- время готовки -->
<g id="node16" class="node">
<title>время готовки</title>
<ellipse fill="none" stroke="#000000" cx="81.8927" cy="-105" rx="81.7856" ry="18"/>
<text text-anchor="middle" x="81.8927" y="-101.3" font-family="Times,serif" font-size="14.00" fill="#000000">время готовки</text>
</g>
<!-- время готовки&#45;&#45;товар -->
<g id="edge15" class="edge">
<title>время готовки&#45;&#45;товар</title>
<path fill="none" stroke="#000000" d="M133.6276,-91.0219C201.7163,-72.6253 319.1713,-40.8906 374.0353,-26.0671"/>
</g>
<!-- описание -->
<g id="node17" class="node">
<title>описание</title>
<ellipse fill="none" stroke="#000000" cx="239.8927" cy="-105" rx="57.6901" ry="18"/>
<text text-anchor="middle" x="239.8927" y="-101.3" font-family="Times,serif" font-size="14.00" fill="#000000">описание</text>
</g>
<!-- описание&#45;&#45;товар -->
<g id="edge17" class="edge">
<title>описание&#45;&#45;товар</title>
<path fill="none" stroke="#000000" d="M269.2126,-89.4461C298.8795,-73.7082 344.5001,-49.5071 374.2737,-33.7125"/>
</g>
<!-- цена -->
<g id="node18" class="node">
<title>цена</title>
<ellipse fill="none" stroke="#000000" cx="349.8927" cy="-105" rx="33.5952" ry="18"/>
<text text-anchor="middle" x="349.8927" y="-101.3" font-family="Times,serif" font-size="14.00" fill="#000000">цена</text>
</g>
<!-- цена&#45;&#45;товар -->
<g id="edge16" class="edge">
<title>цена&#45;&#45;товар</title>
<path fill="none" stroke="#000000" d="M360.5614,-87.8116C369.8439,-72.8564 383.2516,-51.2551 392.6885,-36.0512"/>
</g>
<!-- название -->
<g id="node19" class="node">
<title>название</title>
<ellipse fill="none" stroke="#000000" cx="457.8927" cy="-105" rx="55.7903" ry="18"/>
<text text-anchor="middle" x="457.8927" y="-101.3" font-family="Times,serif" font-size="14.00" fill="#000000">название</text>
</g>
<!-- название&#45;&#45;товар -->
<g id="edge18" class="edge">
<title>название&#45;&#45;товар</title>
<path fill="none" stroke="#000000" d="M446.7039,-86.9735C437.4362,-72.0422 424.331,-50.9283 415.0672,-36.0034"/>
</g>
<!-- токен -->
<g id="node20" class="node">
<title>токен</title>
<ellipse fill="none" stroke="#000000" cx="452.8927" cy="-460" rx="38.9931" ry="18"/>
<text text-anchor="middle" x="452.8927" y="-456.3" font-family="Times,serif" font-size="14.00" fill="#000000">токен</text>
</g>
<!-- токен&#45;&#45;продавец -->
<g id="edge21" class="edge">
<title>токен&#45;&#45;продавец</title>
<path fill="none" stroke="#000000" d="M470.8693,-443.7989C483.5466,-432.3737 500.5412,-417.0576 513.688,-405.2092"/>
</g>
<!-- лайки -->
<g id="node21" class="node">
<title>лайки</title>
<ellipse fill="none" stroke="#000000" cx="549.8927" cy="-460" rx="40.0939" ry="18"/>
<text text-anchor="middle" x="549.8927" y="-456.3" font-family="Times,serif" font-size="14.00" fill="#000000">лайки</text>
</g>
<!-- лайки&#45;&#45;продавец -->
<g id="edge22" class="edge">
<title>лайки&#45;&#45;продавец</title>
<path fill="none" stroke="#000000" d="M545.9377,-441.9551C543.4761,-430.7241 540.3212,-416.3298 537.8577,-405.0904"/>
</g>
<!-- дизлайки -->
<g id="node22" class="node">
<title>дизлайки</title>
<ellipse fill="none" stroke="#000000" cx="665.8927" cy="-460" rx="57.6901" ry="18"/>
<text text-anchor="middle" x="665.8927" y="-456.3" font-family="Times,serif" font-size="14.00" fill="#000000">дизлайки</text>
</g>
<!-- дизлайки&#45;&#45;продавец -->
<g id="edge23" class="edge">
<title>дизлайки&#45;&#45;продавец</title>
<path fill="none" stroke="#000000" d="M637.2507,-444.1601C616.4747,-432.6703 588.3346,-417.108 566.6624,-405.1226"/>
</g>
<!-- парольПользователя -->
<g id="node23" class="node">
<title>парольПользователя</title>
<ellipse fill="none" stroke="#000000" cx="1122.8927" cy="-460" rx="44.393" ry="18"/>
<text text-anchor="middle" x="1122.8927" y="-456.3" font-family="Times,serif" font-size="14.00" fill="#000000">пароль</text>
</g>
<!-- парольПользователя&#45;&#45;покупатель -->
<g id="edge6" class="edge">
<title>парольПользователя&#45;&#45;покупатель</title>
<path fill="none" stroke="#000000" d="M1097.3948,-445.2274C1077.404,-433.6454 1049.4924,-417.4744 1028.1551,-405.1123"/>
</g>
<!-- парольАдмин -->
<g id="node24" class="node">
<title>парольАдмин</title>
<ellipse fill="none" stroke="#000000" cx="1326.8927" cy="-460" rx="44.393" ry="18"/>
<text text-anchor="middle" x="1326.8927" y="-456.3" font-family="Times,serif" font-size="14.00" fill="#000000">пароль</text>
</g>
<!-- парольАдмин&#45;&#45;администратор -->
<g id="edge2" class="edge">
<title>парольАдмин&#45;&#45;администратор</title>
<path fill="none" stroke="#000000" d="M1314.5471,-442.3287C1306.6465,-431.0201 1296.4261,-416.3909 1288.479,-405.0157"/>
</g>
<!-- имеет0&#45;&#45;заказ -->
<g id="edge14" class="edge">
<title>имеет0&#45;&#45;заказ</title>
<path fill="none" stroke="#000000" d="M904.4156,-288.2365C870.8216,-268.9379 803.9193,-230.5046 765.6065,-208.4952"/>
<text text-anchor="middle" x="863.8927" y="-242.3" font-family="Times,serif" font-size="14.00" fill="#000000">n</text>
</g>
<!-- имеет1&#45;&#45;заказ -->
<g id="edge28" class="edge">
<title>имеет1&#45;&#45;заказ</title>
<path fill="none" stroke="#000000" d="M595.2468,-287.611C623.4015,-268.6066 677.4033,-232.1554 709.9855,-210.1624"/>
<text text-anchor="middle" x="685.8927" y="-242.3" font-family="Times,serif" font-size="14.00" fill="#000000">n</text>
</g>
<!-- включает&#45;&#45;товар -->
<g id="edge20" class="edge">
<title>включает&#45;&#45;товар</title>
<path fill="none" stroke="#000000" d="M675.9261,-93.5964C645.5883,-82.6494 597.9194,-66.0457 555.8927,-54 513.7909,-41.9327 464.3162,-30.7636 433.527,-24.1619"/>
<text text-anchor="middle" x="607.8927" y="-57.8" font-family="Times,serif" font-size="14.00" fill="#000000">n</text>
</g>
<!-- владеет0&#45;&#45;кредитная карта -->
<g id="edge8" class="edge">
<title>владеет0&#45;&#45;кредитная карта</title>
<path fill="none" stroke="#000000" d="M1461.3572,-288.8489C1416.9833,-270.2015 1327.3349,-232.5282 1273.868,-210.0597"/>
<text text-anchor="middle" x="1401.8927" y="-242.3" font-family="Times,serif" font-size="14.00" fill="#000000">n</text>
</g>
<!-- владеет1&#45;&#45;товар -->
<g id="edge26" class="edge">
<title>владеет1&#45;&#45;товар</title>
<path fill="none" stroke="#000000" d="M532.4322,-228.7276C539.5204,-197.8132 549.7988,-132.0507 522.8927,-87 503.3615,-54.2975 461.9737,-35.5605 433.5465,-26.0813"/>
<text text-anchor="middle" x="545.8927" y="-144.8" font-family="Times,serif" font-size="14.00" fill="#000000">n</text>
</g>
</g>
</svg>
